<svg xmlns="http://www.w3.org/2000/svg" viewBox="0 0 600 300" width="100%" height="100%">
  <!-- Background gradient -->
  <defs>
    <linearGradient id="bg-gradient" x1="0%" y1="0%" x2="100%" y2="100%">
      <stop offset="0%" stop-color="#0a1528" />
      <stop offset="100%" stop-color="#1e3a8a" />
    </linearGradient>
    
    <!-- Glowing effects -->
    <filter id="blue-glow" x="-20%" y="-20%" width="140%" height="140%">
      <feGaussianBlur stdDeviation="3" result="blur" />
      <feFlood flood-color="#60a5fa" flood-opacity="0.7" result="color"/>
      <feComposite in="color" in2="blur" operator="in" result="glow"/>
      <feComposite in="glow" in2="SourceGraphic" operator="over"/>
    </filter>
    
    <filter id="red-glow" x="-20%" y="-20%" width="140%" height="140%">
      <feGaussianBlur stdDeviation="2" result="blur" />
      <feFlood flood-color="#f43f5e" flood-opacity="0.7" result="color"/>
      <feComposite in="color" in2="blur" operator="in" result="glow"/>
      <feComposite in="glow" in2="SourceGraphic" operator="over"/>
    </filter>
    
    <!-- Blueprint grid pattern -->
    <pattern id="grid" x="0" y="0" width="50" height="50" patternUnits="userSpaceOnUse">
      <rect width="50" height="50" fill="none" stroke="#60a5fa" stroke-width="0.5" opacity="0.1"/>
      <line x1="0" y1="0" x2="50" y2="50" stroke="#60a5fa" stroke-width="0.5" opacity="0.1"/>
      <line x1="50" y1="0" x2="0" y2="50" stroke="#60a5fa" stroke-width="0.5" opacity="0.1"/>
    </pattern>
    
    <!-- Random dots pattern -->
    <pattern id="dots" width="20" height="20" patternUnits="userSpaceOnUse">
      <circle cx="2" cy="2" r="1" fill="#60a5fa" opacity="0.3"/>
      <circle cx="10" cy="10" r="1" fill="#60a5fa" opacity="0.2"/>
      <circle cx="18" cy="6" r="1" fill="#60a5fa" opacity="0.3"/>
      <circle cx="6" cy="18" r="1" fill="#60a5fa" opacity="0.2"/>
    </pattern>
  </defs>
  
  <!-- Main background -->
  <rect width="600" height="300" fill="url(#bg-gradient)" />
  <rect width="600" height="300" fill="url(#grid)" />
  <rect width="600" height="300" fill="url(#dots)" />
  
  <!-- HUD corners -->
  <path d="M 10,10 L 10,40 L 40,40 L 40,10" fill="none" stroke="#60a5fa" stroke-width="2" opacity="0.8" />
  <path d="M 590,10 L 590,40 L 560,40 L 560,10" fill="none" stroke="#60a5fa" stroke-width="2" opacity="0.8" />
  <path d="M 10,290 L 10,260 L 40,260 L 40,290" fill="none" stroke="#60a5fa" stroke-width="2" opacity="0.8" />
  <path d="M 590,290 L 590,260 L 560,260 L 560,290" fill="none" stroke="#60a5fa" stroke-width="2" opacity="0.8" />
  
  <!-- Futuristic circular blueprint -->
  <g transform="translate(300, 150)" filter="url(#blue-glow)">
    <!-- Main circle -->
    <circle cx="0" cy="0" r="80" fill="none" stroke="#60a5fa" stroke-width="2" opacity="0.7" />
    <circle cx="0" cy="0" r="60" fill="none" stroke="#60a5fa" stroke-width="1.5" opacity="0.5" />
    <circle cx="0" cy="0" r="40" fill="none" stroke="#60a5fa" stroke-width="1" opacity="0.3" />
    
    <!-- Cross lines -->
    <line x1="-90" y1="0" x2="90" y2="0" stroke="#60a5fa" stroke-width="1" opacity="0.6" stroke-dasharray="5,3" />
    <line x1="0" y1="-90" x2="0" y2="90" stroke="#60a5fa" stroke-width="1" opacity="0.6" stroke-dasharray="5,3" />
    
    <!-- Measurement ticks -->
    <line x1="80" y1="-5" x2="80" y2="5" stroke="#60a5fa" stroke-width="1" />
    <line x1="-80" y1="-5" x2="-80" y2="5" stroke="#60a5fa" stroke-width="1" />
    <line x1="-5" y1="80" x2="5" y2="80" stroke="#60a5fa" stroke-width="1" />
    <line x1="-5" y1="-80" x2="5" y2="-80" stroke="#60a5fa" stroke-width="1" />
    
    <!-- Rotating scanning line (animation simulated with position) -->
    <line x1="0" y1="0" x2="70" y2="40" stroke="#f43f5e" stroke-width="2" opacity="0.8" />
    <circle cx="70" cy="40" r="3" fill="#f43f5e" />
    
    <!-- Random data points -->
    <circle cx="-50" cy="30" r="3" fill="#4ade80" />
    <circle cx="20" cy="-60" r="3" fill="#4ade80" />
    <circle cx="40" cy="20" r="3" fill="#4ade80" />
    <circle cx="-10" cy="-40" r="3" fill="#4ade80" />
  </g>
  
  <!-- Blueprint components -->
  <g filter="url(#red-glow)">
    <!-- Component 1 -->
    <rect x="140" y="50" width="80" height="40" fill="none" stroke="#f43f5e" stroke-width="1.5" rx="5" />
    <text x="180" y="75" fill="#f43f5e" font-family="sans-serif" font-size="12" text-anchor="middle">MODULE A</text>
    
    <!-- Component 2 -->
    <rect x="380" y="50" width="80" height="40" fill="none" stroke="#f43f5e" stroke-width="1.5" rx="5" />
    <text x="420" y="75" fill="#f43f5e" font-family="sans-serif" font-size="12" text-anchor="middle">MODULE B</text>
    
    <!-- Component 3 -->
    <rect x="140" y="210" width="80" height="40" fill="none" stroke="#f43f5e" stroke-width="1.5" rx="5" />
    <text x="180" y="235" fill="#f43f5e" font-family="sans-serif" font-size="12" text-anchor="middle">MODULE C</text>
    
    <!-- Component 4 -->
    <rect x="380" y="210" width="80" height="40" fill="none" stroke="#f43f5e" stroke-width="1.5" rx="5" />
    <text x="420" y="235" fill="#f43f5e" font-family="sans-serif" font-size="12" text-anchor="middle">MODULE D</text>
    
    <!-- Connection lines -->
    <line x1="180" y1="90" x2="262" y2="130" stroke="#f43f5e" stroke-width="1" stroke-dasharray="5,3" />
    <line x1="420" y1="90" x2="338" y2="130" stroke="#f43f5e" stroke-width="1" stroke-dasharray="5,3" />
    <line x1="180" y1="210" x2="262" y2="170" stroke="#f43f5e" stroke-width="1" stroke-dasharray="5,3" />
    <line x1="420" y1="210" x2="338" y2="170" stroke="#f43f5e" stroke-width="1" stroke-dasharray="5,3" />
  </g>
  
  <!-- Status indicators -->
  <g transform="translate(40, 250)">
    <circle cx="0" cy="0" r="5" fill="#f43f5e" />
    <text x="10" y="4" fill="#f43f5e" font-family="sans-serif" font-size="10">DEVELOPMENT ACTIVE</text>
  </g>
  
  <g transform="translate(40, 270)">
    <circle cx="0" cy="0" r="5" fill="#ffdd57" />
    <text x="10" y="4" fill="#ffdd57" font-family="sans-serif" font-size="10">ESTIMATED COMPLETION: ████████</text>
  </g>
  
  <!-- In development text -->
  <g transform="translate(300, 40)">
    <text x="0" y="0" fill="#ffffff" font-family="sans-serif" font-size="24" font-weight="bold" text-anchor="middle">SYSTEMS IN DEVELOPMENT</text>
    <text x="0" y="25" fill="#60a5fa" font-family="sans-serif" font-size="14" text-anchor="middle">ADVANCED CALCULATION MODULES</text>
  </g>
  
  <!-- Progress bar -->
  <g transform="translate(300, 260)">
    <rect x="-100" y="0" width="200" height="15" rx="7.5" fill="none" stroke="#60a5fa" stroke-width="1.5" />
    <rect x="-100" y="0" width="75" height="15" rx="7.5" fill="#60a5fa" opacity="0.7" />
    <text x="0" y="30" fill="#ffffff" font-family="sans-serif" font-size="12" text-anchor="middle">37.5% COMPLETE</text>
  </g>
  
  <!-- Animated pulse effect (simulated with different sizes) -->
  <circle cx="300" cy="150" r="90" fill="none" stroke="#60a5fa" stroke-width="0.5" opacity="0.1" />
  <circle cx="300" cy="150" r="100" fill="none" stroke="#60a5fa" stroke-width="0.5" opacity="0.07" />
  <circle cx="300" cy="150" r="110" fill="none" stroke="#60a5fa" stroke-width="0.5" opacity="0.04" />
</svg> 