<svg xmlns="http://www.w3.org/2000/svg" viewBox="0 0 600 300" width="100%" height="100%">
  <!-- Background gradient -->
  <defs>
    <linearGradient id="bg-gradient" x1="0%" y1="0%" x2="100%" y2="100%">
      <stop offset="0%" stop-color="#051425" />
      <stop offset="100%" stop-color="#0a2540" />
    </linearGradient>
    
    <!-- Glow effects -->
    <filter id="glow" x="-20%" y="-20%" width="140%" height="140%">
      <feGaussianBlur stdDeviation="2" result="blur" />
      <feComposite in="SourceGraphic" in2="blur" operator="over" />
    </filter>
    
    <!-- Grid pattern -->
    <pattern id="grid" x="0" y="0" width="20" height="20" patternUnits="userSpaceOnUse">
      <path d="M 20 0 L 0 0 0 20" fill="none" stroke="#60a5fa" stroke-width="0.5" opacity="0.2"/>
    </pattern>
  </defs>
  
  <!-- Main background -->
  <rect width="600" height="300" fill="url(#bg-gradient)" />
  <rect width="600" height="300" fill="url(#grid)" opacity="0.3" />
  
  <!-- HUD corners -->
  <path d="M 10,10 L 10,40 L 40,40 L 40,10" fill="none" stroke="#60a5fa" stroke-width="2" opacity="0.8" />
  <path d="M 590,10 L 590,40 L 560,40 L 560,10" fill="none" stroke="#60a5fa" stroke-width="2" opacity="0.8" />
  <path d="M 10,290 L 10,260 L 40,260 L 40,290" fill="none" stroke="#60a5fa" stroke-width="2" opacity="0.8" />
  <path d="M 590,290 L 590,260 L 560,260 L 560,290" fill="none" stroke="#60a5fa" stroke-width="2" opacity="0.8" />
  
  <!-- Room outline -->
  <rect x="120" y="70" width="360" height="180" fill="none" stroke="#60a5fa" stroke-width="2" stroke-dasharray="5,3" />
  
  <!-- Room dimensions -->
  <line x1="120" y1="60" x2="480" y2="60" stroke="#60a5fa" stroke-width="1" />
  <text x="300" y="50" fill="#60a5fa" font-family="sans-serif" font-size="12" text-anchor="middle">4.0m</text>
  
  <line x1="110" y1="70" x2="110" y2="250" stroke="#60a5fa" stroke-width="1" />
  <text x="95" y="160" fill="#60a5fa" font-family="sans-serif" font-size="12" text-anchor="middle" transform="rotate(-90, 95, 160)">5.0m</text>
  
  <!-- Flooring planks (staggered pattern) -->
  <!-- Row 1 -->
  <g id="planks-row1">
    <rect x="120" y="70" width="120" height="30" fill="#cd6116" stroke="#b24e0d" stroke-width="1" />
    <rect x="240" y="70" width="120" height="30" fill="#cd6116" stroke="#b24e0d" stroke-width="1" />
    <rect x="360" y="70" width="120" height="30" fill="#cd6116" stroke="#b24e0d" stroke-width="1" />
  </g>
  
  <!-- Row 2 (offset) -->
  <g id="planks-row2">
    <rect x="120" y="100" width="60" height="30" fill="#d68000" stroke="#b24e0d" stroke-width="1" />
    <rect x="180" y="100" width="120" height="30" fill="#cd6116" stroke="#b24e0d" stroke-width="1" />
    <rect x="300" y="100" width="120" height="30" fill="#cd6116" stroke="#b24e0d" stroke-width="1" />
    <rect x="420" y="100" width="60" height="30" fill="#d68000" stroke="#b24e0d" stroke-width="1" />
  </g>
  
  <!-- More rows (simplified representation) -->
  <g id="more-rows" opacity="0.8">
    <rect x="120" y="130" width="360" height="30" fill="#cd6116" stroke="#b24e0d" stroke-width="1" />
    <rect x="120" y="160" width="360" height="30" fill="#d68000" stroke="#b24e0d" stroke-width="1" />
    <rect x="120" y="190" width="360" height="30" fill="#cd6116" stroke="#b24e0d" stroke-width="1" />
    <rect x="120" y="220" width="360" height="30" fill="#d68000" stroke="#b24e0d" stroke-width="1" />
  </g>
  
  <!-- Measurement lines and calculations -->
  <g id="calculations" filter="url(#glow)">
    <!-- Plank measurement -->
    <line x1="500" y1="90" x2="580" y2="90" stroke="#f43f5e" stroke-width="1" />
    <text x="540" y="85" fill="#f43f5e" font-family="sans-serif" font-size="10" text-anchor="middle">128.5cm</text>
    
    <line x1="590" y1="70" x2="590" y2="100" stroke="#f43f5e" stroke-width="1" />
    <text x="600" y="85" fill="#f43f5e" font-family="sans-serif" font-size="10" text-anchor="middle" transform="rotate(90, 600, 85)">19.2cm</text>
    
    <!-- Calculation elements -->
    <g transform="translate(525, 140)">
      <!-- Calculation circle -->
      <circle cx="0" cy="0" r="35" fill="none" stroke="#60a5fa" stroke-width="1.5" opacity="0.7" />
      
      <!-- Calculator symbols -->
      <path d="M -10,0 L 10,0 M 0,-10 L 0,10" stroke="#4ade80" stroke-width="2" />
      <text x="0" y="20" fill="#4ade80" font-family="sans-serif" font-size="8" text-anchor="middle">CALCULATE</text>
    </g>
    
    <!-- Results visualization -->
    <g transform="translate(525, 220)">
      <!-- Results box -->
      <rect x="-40" y="-25" width="80" height="50" rx="5" fill="none" stroke="#f43f5e" stroke-width="1.5" opacity="0.8" />
      
      <!-- Result indicators -->
      <text x="0" y="-10" fill="#ffffff" font-family="sans-serif" font-size="10" text-anchor="middle">TOTAL PLANKS</text>
      <text x="0" y="10" fill="#f43f5e" font-family="sans-serif" font-size="16" font-weight="bold" text-anchor="middle">48</text>
    </g>
  </g>
  
  <!-- System labels -->
  <text x="300" y="30" fill="#ffffff" font-family="sans-serif" font-size="18" font-weight="bold" text-anchor="middle">FLOORING ANALYZER</text>
  
  <!-- System status indicators -->
  <g transform="translate(40, 275)">
    <circle cx="0" cy="0" r="5" fill="#4ade80" />
    <text x="10" y="4" fill="#4ade80" font-family="sans-serif" font-size="10">SYSTEM ACTIVE</text>
  </g>
  
  <!-- Legend -->
  <g transform="translate(500, 275)">
    <rect x="0" y="-10" width="15" height="10" fill="#cd6116" stroke="#b24e0d" stroke-width="1" />
    <text x="20" y="0" fill="#ffffff" font-family="sans-serif" font-size="10">Full Planks</text>
    
    <rect x="80" y="-10" width="15" height="10" fill="#d68000" stroke="#b24e0d" stroke-width="1" />
    <text x="100" y="0" fill="#ffffff" font-family="sans-serif" font-size="10">Cut Planks</text>
  </g>
</svg> 